<?xml version="1.0" encoding="UTF-8" standalone="no"?><!DOCTYPE svg PUBLIC "-//W3C//DTD SVG 1.1//EN" "http://www.w3.org/Graphics/SVG/1.1/DTD/svg11.dtd"><svg width="100%" height="100%" viewBox="0 0 514 514" version="1.1" xmlns="http://www.w3.org/2000/svg" xmlns:xlink="http://www.w3.org/1999/xlink" xml:space="preserve" style="fill-rule:evenodd;clip-rule:evenodd;stroke-linejoin:round;stroke-miterlimit:1.41421;"><path d="M432.044,85.554l-55.61,-55.61l29.944,-29.944l106.942,106.942l-106.941,106.942l-29.944,-29.944l55.61,-55.61l-89.831,0c-36.36,0 -64.165,27.805 -64.165,64.165l0,212.416c17.11,-12.833 40.638,-21.388 64.165,-21.388l89.831,0l-55.61,-55.61l29.944,-29.944l106.941,106.941l-106.942,106.942l-29.944,-29.944l55.61,-55.61l-89.831,0c-36.249,0 -63.994,27.634 -64.164,63.83l0,23.192l-0.001,0l-42.777,0l0,-115.352l0.001,0l0,-12.978c0,-36.36 -27.805,-64.165 -64.165,-64.165l-89.831,0l55.61,55.61l-29.944,29.944l-106.942,-106.942l106.941,-106.941l29.944,29.944l-55.61,55.61l89.831,0c23.527,0 47.055,8.555 64.165,21.388l0,-106.942c0,-59.887 47.055,-106.942 106.942,-106.942l89.831,0Z"/></svg>