<?xml version="1.0" encoding="utf-8"?>
<!-- Generator: Adobe Illustrator 22.1.0, SVG Export Plug-In . SVG Version: 6.00 Build 0)  -->
<svg version="1.1" id="Layer_1" xmlns="http://www.w3.org/2000/svg" xmlns:xlink="http://www.w3.org/1999/xlink" x="0px" y="0px"
	 viewBox="0 0 400 400" style="enable-background:new 0 0 400 400;" xml:space="preserve">
<style type="text/css">
	.st0{fill:#ED561B;}
</style>
<g>
	<path class="st0" d="M373.5,390.3l-10.8-64.2c-1-5.8-8.8-7.2-11.6-2l-5.2,9.6c-21.2-28.2-32.2-42.2-70.2-84.8
		c-26-29-59.4-39.8-90.4-38.6c-4.6,0.2-9,0.6-13.4,1.2V211c11.2-3.4,22.4-8,33-13.2c42.6-21,83.8-58,91.6-103.4
		c0-0.4,0.2-0.8,0.2-1.2c3-26.6-5.8-49-21.4-65c-15.2-15.6-36-24.2-56.8-25.6c-20.8-1.4-43,4.4-60.2,19.6
		c-17.6,15.4-27.8,39-27.8,68.6v86.8c-13.4,1.4-24.8,0.2-34-2.8l7.2-10c3.4-4.8-1-11.2-6.6-9.6l-63.4,17c-4.6,1.2-6.2,7-2.8,10.4
		l46,46c4.2,4,11.4,0.6,10.6-5.2l-1-8.6c14.2,4.2,29.2,5.2,44.2,4.2v6.4c-9,5-17,10.8-23.6,17.4c-32.2,32-41.8,68-30.4,95
		c5.8,13.2,17,24.2,32,27.2c15.4,3.2,30.4-2.6,42-14c12.8-12.4,17.2-29.6,19.2-46.6c1.6-14,2-31.2,2-50.6c4.8-1.2,9.8-1.8,14.8-2
		c20.2-0.8,41.2,6,58,24.8c37.4,41.8,47.6,55,68.6,82.8l-9.6,3.2c-5.6,1.8-5.6,9.6-0.2,11.6l61.6,23
		C369.5,398.7,374.1,394.9,373.5,390.3z M172.2,91.1c0-19.8,6.4-31.4,13.8-37.8c7.6-6.6,18.4-10,30-9.2c11.6,0.8,22.6,5.6,30,13.2
		c7,7,11.4,17,10,30.8c-4.8,26-31.6,54.4-69,72.8c-4.8,2.4-9.8,4.6-14.8,6.6V91.1z M129,299.6c-1.6,14.4-4.6,19.8-7,22
		c-2.8,2.6-4.4,3-5,3c-0.2-0.2-1.2-0.6-2.2-3c-2.4-5.4-3.6-21.4,15.6-43.2C130.2,286.4,129.8,293.4,129,299.6z"/>
</g>
</svg>
