<svg width="400" height="400" viewBox="0 0 400 400" fill="none" xmlns="http://www.w3.org/2000/svg">
<g clip-path="url(#clip0)">
<rect x="200" y="-6.10352e-05" width="282.843" height="282.843" rx="12" transform="rotate(45 200 -6.10352e-05)" fill="#F26D23"/>
<path fill-rule="evenodd" clip-rule="evenodd" d="M241.028 128.705C242.514 115.438 238.097 104.206 230.309 96.2454C222.72 88.4883 212.307 84.1863 201.947 83.4804C191.554 82.7722 180.468 85.6474 171.87 93.249C163.1 101.003 157.985 112.727 157.985 127.558V170.91C151.341 171.546 145.605 170.994 141.004 169.463L144.58 164.496C146.279 162.137 144.079 158.95 141.271 159.703L109.556 168.2C107.257 168.816 106.487 171.69 108.17 173.373L131.176 196.379C133.255 198.458 136.788 196.736 136.432 193.818L135.9 189.468C142.935 191.574 150.499 192.123 157.985 191.593V194.811C153.551 197.23 149.565 200.155 146.226 203.467C130.075 219.487 125.259 237.486 131.008 250.969C133.844 257.62 139.436 263.046 146.971 264.583C154.652 266.15 162.19 263.251 167.994 257.576C174.34 251.371 176.575 242.789 177.589 234.239C178.424 227.199 178.569 218.655 178.593 208.908C180.983 208.377 183.476 208.042 186.026 207.946C196.101 207.566 206.616 210.924 215.036 220.359C233.688 241.258 238.838 247.808 249.321 261.722L244.478 263.37C241.726 264.306 241.669 268.178 244.393 269.194L275.155 280.67C277.385 281.502 279.68 279.608 279.285 277.26L273.892 245.175C273.405 242.276 269.528 241.629 268.125 244.213L265.534 248.986C254.949 234.944 249.417 227.924 230.415 206.633C217.448 192.104 200.747 186.763 185.25 187.347C183.013 187.431 180.791 187.639 178.599 187.962V187.618C184.239 185.881 189.804 183.651 195.132 181.024C216.394 170.541 237.045 152.012 240.943 129.301C240.977 129.103 241.006 128.904 241.028 128.705ZM178.599 127.558V165.803C181.091 164.833 183.572 163.741 186.017 162.535C204.767 153.291 218.176 139.128 220.575 126.109C221.268 119.209 219.027 114.19 215.574 110.661C211.873 106.877 206.378 104.444 200.545 104.046C194.746 103.651 189.355 105.305 185.524 108.692C181.865 111.927 178.599 117.652 178.599 127.558ZM149.97 242.883C148.846 240.248 148.169 232.214 157.817 221.207C157.694 225.24 157.483 228.74 157.119 231.811C156.257 239.079 154.74 241.706 153.583 242.837C152.188 244.201 151.346 244.374 151.095 244.384C150.966 244.329 150.462 244.039 149.97 242.883ZM151.016 244.379C151.016 244.376 151.04 244.375 151.087 244.385C151.04 244.386 151.016 244.381 151.016 244.379ZM151.106 244.389C151.121 244.392 151.127 244.395 151.127 244.395C151.127 244.395 151.12 244.394 151.106 244.389Z" fill="#1F282D"/>
</g>
<defs>
<clipPath id="clip0">
<rect width="400" height="400" fill="white"/>
</clipPath>
</defs>
</svg>
